<?xml version="1.0" encoding="UTF-8" standalone="no"?>
<!-- Created with Inkscape (http://www.inkscape.org/) -->

<svg
   xmlns:osb="http://www.openswatchbook.org/uri/2009/osb"
   xmlns:dc="http://purl.org/dc/elements/1.1/"
   xmlns:cc="http://creativecommons.org/ns#"
   xmlns:rdf="http://www.w3.org/1999/02/22-rdf-syntax-ns#"
   xmlns:svg="http://www.w3.org/2000/svg"
   xmlns="http://www.w3.org/2000/svg"
   xmlns:xlink="http://www.w3.org/1999/xlink"
   xmlns:sodipodi="http://sodipodi.sourceforge.net/DTD/sodipodi-0.dtd"
   xmlns:inkscape="http://www.inkscape.org/namespaces/inkscape"
   width="9500"
   height="2000"
   id="svg2"
   version="1.1"
   inkscape:version="0.48.2 r9819"
   sodipodi:docname="techshroom_logo4_banner.svg"
   inkscape:export-filename="/Users/edtogami/Dropbox/TechShroom DropBOX/images/techshroom_logo4_banner.png"
   inkscape:export-xdpi="9"
   inkscape:export-ydpi="9">
  <sodipodi:namedview
     id="base"
     pagecolor="#ffffff"
     bordercolor="#666666"
     borderopacity="1.0"
     inkscape:pageopacity="0.0"
     inkscape:pageshadow="2"
     inkscape:zoom="0.24767379"
     inkscape:cx="5207.7272"
     inkscape:cy="1001.3171"
     inkscape:document-units="px"
     inkscape:current-layer="layer1"
     showgrid="false"
     showguides="false"
     inkscape:guide-bbox="true"
     guidetolerance="10000"
     inkscape:window-width="1280"
     inkscape:window-height="714"
     inkscape:window-x="0"
     inkscape:window-y="0"
     inkscape:window-maximized="1"
     inkscape:snap-grids="true"
     fit-margin-top="0"
     fit-margin-left="0"
     fit-margin-right="0"
     fit-margin-bottom="0">
    <sodipodi:guide
       orientation="0,1"
       position="494.73305,494.74764"
       id="guide2989" />
    <sodipodi:guide
       orientation="1,0"
       position="494.73305,494.74764"
       id="guide2991" />
    <inkscape:grid
       type="xygrid"
       id="grid2993"
       empspacing="5"
       visible="true"
       enabled="true"
       snapvisiblegridlinesonly="true"
       spacingx="0.5px"
       spacingy="0.5px" />
  </sodipodi:namedview>
  <defs
     id="defs4">
    <linearGradient
       id="linearGradient5509"
       osb:paint="solid">
      <stop
         style="stop-color:#364d47;stop-opacity:0.33777776;"
         offset="0"
         id="stop5511" />
    </linearGradient>
    <pattern
       inkscape:collect="always"
       xlink:href="#Strips1_1-634"
       id="pattern5548-988"
       patternTransform="matrix(7.0710674,7.0710674,-7.0710674,7.0710674,385.00943,391.8606)" />
    <pattern
       inkscape:stockid="Stripes 1:1"
       id="Strips1_1-634"
       patternTransform="translate(0,0) scale(10,10)"
       height="1"
       width="2"
       patternUnits="userSpaceOnUse"
       inkscape:collect="always">
      <rect
         id="rect6220"
         height="2"
         width="1"
         y="-0.5"
         x="0"
         style="fill:#000000;stroke:none" />
    </pattern>
    <pattern
       inkscape:collect="always"
       xlink:href="#Strips1_1-634-177"
       id="pattern5548-988-9"
       patternTransform="matrix(7.0710674,7.0710674,-7.0710674,7.0710674,385.00943,391.8606)" />
    <pattern
       inkscape:stockid="Stripes 1:1"
       id="Strips1_1-634-177"
       patternTransform="translate(0,0) scale(10,10)"
       height="1"
       width="2"
       patternUnits="userSpaceOnUse"
       inkscape:collect="always">
      <rect
         id="rect3034"
         height="2"
         width="1"
         y="-0.5"
         x="0"
         style="fill:#000000;stroke:none" />
    </pattern>
    <pattern
       inkscape:collect="always"
       xlink:href="#Strips1_1-634-177-249"
       id="pattern5548-988-9-146"
       patternTransform="matrix(7.0710674,7.0710674,-7.0710674,7.0710674,385.00943,391.8606)" />
    <pattern
       inkscape:stockid="Stripes 1:1"
       id="Strips1_1-634-177-249"
       patternTransform="translate(0,0) scale(10,10)"
       height="1"
       width="2"
       patternUnits="userSpaceOnUse"
       inkscape:collect="always">
      <rect
         id="rect7194"
         height="2"
         width="1"
         y="-0.5"
         x="0"
         style="fill:#824db9;stroke:none" />
    </pattern>
    <pattern
       inkscape:collect="always"
       xlink:href="#Strips1_1-634-177-249-982"
       id="pattern5548-988-9-146-144"
       patternTransform="matrix(7.0710674,7.0710674,-7.0710674,7.0710674,385.00943,391.8606)" />
    <pattern
       inkscape:stockid="Stripes 1:1"
       id="Strips1_1-634-177-249-982"
       patternTransform="translate(0,0) scale(10,10)"
       height="1"
       width="2"
       patternUnits="userSpaceOnUse"
       inkscape:collect="always">
      <rect
         id="rect4522"
         height="2"
         width="1"
         y="-0.5"
         x="0"
         style="fill:#824db9;stroke:none" />
    </pattern>
    <pattern
       inkscape:collect="always"
       xlink:href="#Strips1_1-634-177-249-982-477"
       id="pattern5548-988-9-146-144-727"
       patternTransform="matrix(14.369198,14.369195,-14.369198,14.369195,772.91053,-173.95861)" />
    <pattern
       inkscape:stockid="Stripes 1:1"
       id="Strips1_1-634-177-249-982-477"
       patternTransform="translate(0,0) scale(10,10)"
       height="1"
       width="2"
       patternUnits="userSpaceOnUse"
       inkscape:collect="always">
      <rect
         id="rect4614"
         height="2"
         width="1"
         y="-0.5"
         x="0"
         style="fill:#824db9;stroke:none" />
    </pattern>
    <pattern
       inkscape:collect="always"
       xlink:href="#Strips1_1-634-177-249-982-477-294"
       id="pattern5548-988-9-146-144-727-155"
       patternTransform="matrix(14.369198,14.369195,-14.369198,14.369195,4521.5934,-172.64153)" />
    <pattern
       inkscape:stockid="Stripes 1:1"
       id="Strips1_1-634-177-249-982-477-294"
       patternTransform="translate(0,0) scale(10,10)"
       height="1"
       width="2"
       patternUnits="userSpaceOnUse"
       inkscape:collect="always">
      <rect
         id="rect4599"
         height="2"
         width="1"
         y="-0.5"
         x="0"
         style="fill:#7c3393;stroke:none" />
    </pattern>
  </defs>
  <metadata
     id="metadata7">
    <rdf:RDF>
      <cc:Work
         rdf:about="">
        <dc:format>image/svg+xml</dc:format>
        <dc:type
           rdf:resource="http://purl.org/dc/dcmitype/StillImage" />
        <dc:title></dc:title>
      </cc:Work>
    </rdf:RDF>
  </metadata>
  <g
     inkscape:label="Layer 1"
     inkscape:groupmode="layer"
     id="layer1"
     transform="translate(-5.2669529,952.89022)">
    <path
       sodipodi:type="star"
       style="fill:#7c3393;fill-opacity:1;stroke:#000000;stroke-width:2;stroke-linejoin:miter;stroke-miterlimit:4;stroke-opacity:1;stroke-dasharray:none"
       id="path2997"
       sodipodi:sides="16"
       sodipodi:cx="500"
       sodipodi:cy="500"
       sodipodi:r1="500"
       sodipodi:r2="402.5"
       sodipodi:arg1="-1.5707963"
       sodipodi:arg2="-1.3744468"
       inkscape:flatsided="false"
       inkscape:rounded="0"
       inkscape:randomized="0"
       d="M 500.00001,0 578.52385,105.23392 691.34173,38.060239 723.61701,165.33348 853.5534,146.44662 834.66652,276.38298 961.93977,308.6583 894.76607,421.47614 1000,500.00001 894.76608,578.52385 961.93976,691.34173 834.66652,723.61701 853.55338,853.5534 723.61702,834.66652 691.3417,961.93977 578.52386,894.76607 499.99999,1000 421.47615,894.76608 308.65827,961.93976 276.38299,834.66652 146.4466,853.55338 165.33348,723.61702 38.060229,691.3417 105.23393,578.52386 0,499.99999 105.23392,421.47615 38.060239,308.65827 165.33348,276.38299 146.44662,146.4466 276.38298,165.33348 308.6583,38.060229 421.47614,105.23393 z"
       transform="matrix(1.1164844,1.6979223,-1.6979224,1.1164843,5045.986,-1360.0935)" />
    <path
       sodipodi:type="arc"
       style="fill:#00bc00;fill-opacity:1;stroke:#000000;stroke-width:4;stroke-linejoin:round;stroke-miterlimit:4;stroke-opacity:1;stroke-dasharray:12, 4;stroke-dashoffset:39.99999854"
       id="path3016"
       sodipodi:cx="500"
       sodipodi:cy="500"
       sodipodi:rx="420"
       sodipodi:ry="420"
       d="m 920,500 a 420,420 0 1 1 -840,0 420,420 0 1 1 840,0 z"
       transform="matrix(2.0321117,0,0,2.0321115,3739.2113,-968.94601)" />
    <g
       id="g3042"
       transform="translate(3748.6829,1.31708)">
      <path
         transform="matrix(2.0321117,0,0,2.0321115,-9.4715902,-970.26309)"
         d="m 180,500 c 0,22.09139 -17.90861,40 -40,40 -22.09139,0 -40,-17.90861 -40,-40 0,-22.09139 17.90861,-40 40,-40 22.09139,0 40,17.90861 40,40 z"
         sodipodi:ry="40"
         sodipodi:rx="40"
         sodipodi:cy="500"
         sodipodi:cx="140"
         id="path3859"
         style="fill:#e95d00;fill-opacity:1;stroke:#000000;stroke-width:2;stroke-linejoin:round;stroke-miterlimit:4;stroke-opacity:1;stroke-dasharray:none;stroke-dashoffset:30"
         sodipodi:type="arc" />
      <path
         sodipodi:type="arc"
         style="fill:#e95d00;fill-opacity:1;stroke:#000000;stroke-width:2;stroke-linejoin:round;stroke-miterlimit:4;stroke-opacity:1;stroke-dasharray:none;stroke-dashoffset:30"
         id="path3861"
         sodipodi:cx="140"
         sodipodi:cy="500"
         sodipodi:rx="40"
         sodipodi:ry="40"
         d="m 180,500 c 0,22.09139 -17.90861,40 -40,40 -22.09139,0 -40,-17.90861 -40,-40 0,-22.09139 17.90861,-40 40,-40 22.09139,0 40,17.90861 40,40 z"
         transform="matrix(2.0321117,0,0,2.0321115,51.491756,-1234.4376)" />
      <path
         transform="matrix(2.0321117,0,0,2.0321115,214.06069,-1478.291)"
         d="m 180,500 c 0,22.09139 -17.90861,40 -40,40 -22.09139,0 -40,-17.90861 -40,-40 0,-22.09139 17.90861,-40 40,-40 22.09139,0 40,17.90861 40,40 z"
         sodipodi:ry="40"
         sodipodi:rx="40"
         sodipodi:cy="500"
         sodipodi:cx="140"
         id="path3863"
         style="fill:#e95d00;fill-opacity:1;stroke:#000000;stroke-width:2;stroke-linejoin:round;stroke-miterlimit:4;stroke-opacity:1;stroke-dasharray:none;stroke-dashoffset:30"
         sodipodi:type="arc" />
      <path
         sodipodi:type="arc"
         style="fill:#e95d00;fill-opacity:1;stroke:#000000;stroke-width:2;stroke-linejoin:round;stroke-miterlimit:4;stroke-opacity:1;stroke-dasharray:none;stroke-dashoffset:30"
         id="path3865"
         sodipodi:cx="140"
         sodipodi:cy="500"
         sodipodi:rx="40"
         sodipodi:ry="40"
         d="m 180,500 c 0,22.09139 -17.90861,40 -40,40 -22.09139,0 -40,-17.90861 -40,-40 0,-22.09139 17.90861,-40 40,-40 22.09139,0 40,17.90861 40,40 z"
         transform="matrix(2.0321117,0,0,2.0321115,457.91406,-1640.8599)" />
      <path
         transform="matrix(2.0321117,0,0,2.0321115,722.08857,-1701.8232)"
         d="m 180,500 c 0,22.09139 -17.90861,40 -40,40 -22.09139,0 -40,-17.90861 -40,-40 0,-22.09139 17.90861,-40 40,-40 22.09139,0 40,17.90861 40,40 z"
         sodipodi:ry="40"
         sodipodi:rx="40"
         sodipodi:cy="500"
         sodipodi:cx="140"
         id="path3867"
         style="fill:#e95d00;fill-opacity:1;stroke:#000000;stroke-width:2;stroke-linejoin:round;stroke-miterlimit:4;stroke-opacity:1;stroke-dasharray:none;stroke-dashoffset:30"
         sodipodi:type="arc" />
      <path
         sodipodi:type="arc"
         style="fill:#e95d00;fill-opacity:1;stroke:#000000;stroke-width:2;stroke-linejoin:round;stroke-miterlimit:4;stroke-opacity:1;stroke-dasharray:none;stroke-dashoffset:30"
         id="path3869"
         sodipodi:cx="140"
         sodipodi:cy="500"
         sodipodi:rx="40"
         sodipodi:ry="40"
         d="m 180,500 c 0,22.09139 -17.90861,40 -40,40 -22.09139,0 -40,-17.90861 -40,-40 0,-22.09139 17.90861,-40 40,-40 22.09139,0 40,17.90861 40,40 z"
         transform="matrix(2.0321117,0,0,2.0321115,986.26307,-1640.8599)" />
      <path
         transform="matrix(2.0321117,0,0,2.0321115,1230.1164,-1478.291)"
         d="m 180,500 c 0,22.09139 -17.90861,40 -40,40 -22.09139,0 -40,-17.90861 -40,-40 0,-22.09139 17.90861,-40 40,-40 22.09139,0 40,17.90861 40,40 z"
         sodipodi:ry="40"
         sodipodi:rx="40"
         sodipodi:cy="500"
         sodipodi:cx="140"
         id="path3871"
         style="fill:#e95d00;fill-opacity:1;stroke:#000000;stroke-width:2;stroke-linejoin:round;stroke-miterlimit:4;stroke-opacity:1;stroke-dasharray:none;stroke-dashoffset:30"
         sodipodi:type="arc" />
      <path
         sodipodi:type="arc"
         style="fill:#e95d00;fill-opacity:1;stroke:#000000;stroke-width:2;stroke-linejoin:round;stroke-miterlimit:4;stroke-opacity:1;stroke-dasharray:none;stroke-dashoffset:30"
         id="path3873"
         sodipodi:cx="140"
         sodipodi:cy="500"
         sodipodi:rx="40"
         sodipodi:ry="40"
         d="m 180,500 c 0,22.09139 -17.90861,40 -40,40 -22.09139,0 -40,-17.90861 -40,-40 0,-22.09139 17.90861,-40 40,-40 22.09139,0 40,17.90861 40,40 z"
         transform="matrix(2.0321117,0,0,2.0321115,1392.6854,-1234.4376)" />
      <path
         transform="matrix(2.0321117,0,0,2.0321115,1453.6487,-970.26309)"
         d="m 180,500 c 0,22.09139 -17.90861,40 -40,40 -22.09139,0 -40,-17.90861 -40,-40 0,-22.09139 17.90861,-40 40,-40 22.09139,0 40,17.90861 40,40 z"
         sodipodi:ry="40"
         sodipodi:rx="40"
         sodipodi:cy="500"
         sodipodi:cx="140"
         id="path3875"
         style="fill:#e95d00;fill-opacity:1;stroke:#000000;stroke-width:2;stroke-linejoin:round;stroke-miterlimit:4;stroke-opacity:1;stroke-dasharray:none;stroke-dashoffset:30"
         sodipodi:type="arc" />
      <path
         sodipodi:type="arc"
         style="fill:#e95d00;fill-opacity:1;stroke:#000000;stroke-width:2;stroke-linejoin:round;stroke-miterlimit:4;stroke-opacity:1;stroke-dasharray:none;stroke-dashoffset:30"
         id="path3877"
         sodipodi:cx="140"
         sodipodi:cy="500"
         sodipodi:rx="40"
         sodipodi:ry="40"
         d="m 180,500 c 0,22.09139 -17.90861,40 -40,40 -22.09139,0 -40,-17.90861 -40,-40 0,-22.09139 17.90861,-40 40,-40 22.09139,0 40,17.90861 40,40 z"
         transform="matrix(2.0321117,0,0,2.0321115,722.08857,-238.70293)" />
      <path
         transform="matrix(2.0321117,0,0,2.0321115,986.26307,-299.66627)"
         d="m 180,500 c 0,22.09139 -17.90861,40 -40,40 -22.09139,0 -40,-17.90861 -40,-40 0,-22.09139 17.90861,-40 40,-40 22.09139,0 40,17.90861 40,40 z"
         sodipodi:ry="40"
         sodipodi:rx="40"
         sodipodi:cy="500"
         sodipodi:cx="140"
         id="path3879"
         style="fill:#e95d00;fill-opacity:1;stroke:#000000;stroke-width:2;stroke-linejoin:round;stroke-miterlimit:4;stroke-opacity:1;stroke-dasharray:none;stroke-dashoffset:30"
         sodipodi:type="arc" />
      <path
         sodipodi:type="arc"
         style="fill:#e95d00;fill-opacity:1;stroke:#000000;stroke-width:2;stroke-linejoin:round;stroke-miterlimit:4;stroke-opacity:1;stroke-dasharray:none;stroke-dashoffset:30"
         id="path3881"
         sodipodi:cx="140"
         sodipodi:cy="500"
         sodipodi:rx="40"
         sodipodi:ry="40"
         d="m 180,500 c 0,22.09139 -17.90861,40 -40,40 -22.09139,0 -40,-17.90861 -40,-40 0,-22.09139 17.90861,-40 40,-40 22.09139,0 40,17.90861 40,40 z"
         transform="matrix(2.0321117,0,0,2.0321115,1230.1164,-462.23521)" />
      <path
         transform="matrix(2.0321117,0,0,2.0321115,1392.6854,-706.0886)"
         d="m 180,500 c 0,22.09139 -17.90861,40 -40,40 -22.09139,0 -40,-17.90861 -40,-40 0,-22.09139 17.90861,-40 40,-40 22.09139,0 40,17.90861 40,40 z"
         sodipodi:ry="40"
         sodipodi:rx="40"
         sodipodi:cy="500"
         sodipodi:cx="140"
         id="path3883"
         style="fill:#e95d00;fill-opacity:1;stroke:#000000;stroke-width:2;stroke-linejoin:round;stroke-miterlimit:4;stroke-opacity:1;stroke-dasharray:none;stroke-dashoffset:30"
         sodipodi:type="arc" />
      <path
         transform="matrix(2.0321117,0,0,2.0321115,51.491756,-706.0886)"
         d="m 180,500 c 0,22.09139 -17.90861,40 -40,40 -22.09139,0 -40,-17.90861 -40,-40 0,-22.09139 17.90861,-40 40,-40 22.09139,0 40,17.90861 40,40 z"
         sodipodi:ry="40"
         sodipodi:rx="40"
         sodipodi:cy="500"
         sodipodi:cx="140"
         id="path3885"
         style="fill:#e95d00;fill-opacity:1;stroke:#000000;stroke-width:2;stroke-linejoin:round;stroke-miterlimit:4;stroke-opacity:1;stroke-dasharray:none;stroke-dashoffset:30"
         sodipodi:type="arc" />
      <path
         sodipodi:type="arc"
         style="fill:#e95d00;fill-opacity:1;stroke:#000000;stroke-width:2;stroke-linejoin:round;stroke-miterlimit:4;stroke-opacity:1;stroke-dasharray:none;stroke-dashoffset:30"
         id="path3887"
         sodipodi:cx="140"
         sodipodi:cy="500"
         sodipodi:rx="40"
         sodipodi:ry="40"
         d="m 180,500 c 0,22.09139 -17.90861,40 -40,40 -22.09139,0 -40,-17.90861 -40,-40 0,-22.09139 17.90861,-40 40,-40 22.09139,0 40,17.90861 40,40 z"
         transform="matrix(2.0321117,0,0,2.0321115,214.06069,-462.23521)" />
      <path
         transform="matrix(2.0321117,0,0,2.0321115,457.91406,-299.66627)"
         d="m 180,500 c 0,22.09139 -17.90861,40 -40,40 -22.09139,0 -40,-17.90861 -40,-40 0,-22.09139 17.90861,-40 40,-40 22.09139,0 40,17.90861 40,40 z"
         sodipodi:ry="40"
         sodipodi:rx="40"
         sodipodi:cy="500"
         sodipodi:cx="140"
         id="path3889"
         style="fill:#e95d00;fill-opacity:1;stroke:#000000;stroke-width:2;stroke-linejoin:round;stroke-miterlimit:4;stroke-opacity:1;stroke-dasharray:none;stroke-dashoffset:30"
         sodipodi:type="arc" />
      <path
         transform="matrix(2.0321117,0,0,2.0321115,-9.4715902,-970.26309)"
         d="M 780,500 C 780,654.63973 654.63973,780 500,780 345.36027,780 220,654.63973 220,500 220,345.36027 345.36027,220 500,220 c 154.63973,0 280,125.36027 280,280 z"
         sodipodi:ry="280"
         sodipodi:rx="280"
         sodipodi:cy="500"
         sodipodi:cx="500"
         id="path3934"
         style="fill:#e95d00;fill-opacity:1;stroke:#000000;stroke-width:2;stroke-linejoin:round;stroke-miterlimit:4;stroke-opacity:1;stroke-dasharray:none;stroke-dashoffset:30"
         sodipodi:type="arc" />
    </g>
    <path
       inkscape:connector-curvature="0"
       id="path3950"
       style="fill:#00bc00;fill-opacity:1;fill-rule:evenodd;stroke:#000000;stroke-width:3.04816723;stroke-linecap:butt;stroke-linejoin:miter;stroke-miterlimit:4;stroke-opacity:1;stroke-dasharray:none"
       d="m 4836.5516,494.17432 0,-81.28446 c 243.8533,-40.64222 284.4955,-284.4956 284.4955,-284.4956 l 81.2845,0 m -365.78,365.78006 c 325.1378,-40.64221 365.78,-365.78006 365.78,-365.78006" />
    <path
       d="m 4673.9826,494.17432 0,-81.28446 C 4430.1292,372.24764 4389.487,128.39426 4389.487,128.39426 l -81.2845,0 m 365.7801,365.78006 C 4348.8447,453.53211 4308.2025,128.39426 4308.2025,128.39426"
       style="fill:#00bc00;fill-opacity:1;fill-rule:evenodd;stroke:#000000;stroke-width:3.04816723;stroke-linecap:butt;stroke-linejoin:miter;stroke-miterlimit:4;stroke-opacity:1;stroke-dasharray:none"
       id="path3954"
       inkscape:connector-curvature="0" />
    <path
       id="path3965"
       style="fill:url(#pattern5548-988-9-146-144-727-155);fill-opacity:1;fill-rule:evenodd;stroke:#7c3393;stroke-width:6.09633446;stroke-linecap:butt;stroke-linejoin:miter;stroke-miterlimit:4;stroke-opacity:1;stroke-dasharray:6.0963347, 6.0963347;stroke-dashoffset:0"
       d="m 4308.2025,47.109776 142.2478,0 m -142.2478,-2e-5 c 0,-246.906926 200.1577,-447.064546 447.0646,-447.064526 246.907,3e-5 447.0645,200.15764 447.0645,447.064546 m -751.8813,-2e-5 c 0,2e-5 0,2e-5 0,2e-5 0,168.345634 136.4711,304.816734 304.8168,304.816734 168.3456,0 304.8167,-136.4711 304.8167,-304.816734 l 142.2478,0"
       inkscape:connector-curvature="0" />
    <path
       inkscape:connector-curvature="0"
       style="fill:#00bc00;fill-opacity:1;stroke:#000000;stroke-width:3.04816723;stroke-linejoin:round;stroke-miterlimit:4;stroke-opacity:1;stroke-dasharray:none;stroke-dashoffset:30"
       d="m 4978.7993,47.109776 c 0,123.453464 -100.0787,223.532284 -223.5322,223.532284 -123.4535,0 -223.5323,-100.07882 -223.5323,-223.532284 0,-123.453471 100.0788,-223.532286 223.5323,-223.532286 123.4535,0 223.5322,100.078815 223.5322,223.532286 z"
       id="path3973" />
  </g>
</svg>
